<svg xmlns="http://www.w3.org/2000/svg" xmlns:xlink="http://www.w3.org/1999/xlink" width="40" height="40" viewBox="0 0 40 40"><defs><clipPath id="a"><path d="M0,22H40V-18H0Z" transform="translate(0 18)" fill="none"/></clipPath></defs><g transform="translate(0 18)"><g transform="translate(0 -18)" clip-path="url(#a)"><g transform="translate(11.595 12.873)"><path d="M3.442,7.836a1.955,1.955,0,0,1-1.511-.709L-2.362,1.973A1.968,1.968,0,0,1-2.111-.793,1.962,1.962,0,0,1-.853-1.249,1.96,1.96,0,0,1,.658-.542L3.44,2.793,10.518-5.7a1.978,1.978,0,0,1,1.518-.713,1.975,1.975,0,0,1,1.267.462,1.97,1.97,0,0,1,.238,2.771L4.949,7.129a1.96,1.96,0,0,1-1.507.707" transform="translate(2.816 6.411)" fill="#bc9e56"/></g><path d="M11,22A20.022,20.022,0,0,1-9,2,20.022,20.022,0,0,1,11-18,20.053,20.053,0,0,1,31,2,20.022,20.022,0,0,1,11,22m0-36.064A16.083,16.083,0,0,0-5.064,2,16.083,16.083,0,0,0,11,18.064,16.106,16.106,0,0,0,27.064,2,16.083,16.083,0,0,0,11-14.064" transform="translate(9 18)" fill="#bc9e56"/></g></g></svg>